<mxfile host="app.diagrams.net" agent="Mozilla/5.0 (Windows NT 10.0; Win64; x64) AppleWebKit/537.36 (KHTML, like Gecko) Chrome/135.0.0.0 Safari/537.36" version="26.2.14">
  <diagram name="Page-1" id="vv-WFLl7KYbE2nEj0Dvh">
    <mxGraphModel dx="2977" dy="406" grid="0" gridSize="10" guides="1" tooltips="1" connect="1" arrows="1" fold="1" page="1" pageScale="1" pageWidth="1920" pageHeight="1200" background="light-dark(#FFFFFF,#E6D0DE)" math="0" shadow="0">
      <root>
        <mxCell id="0" />
        <mxCell id="1" parent="0" />
        <mxCell id="6TATtCABWgqQkM9xj-CV-7" value="" style="shape=image;verticalLabelPosition=bottom;labelBackgroundColor=default;verticalAlign=top;aspect=fixed;imageAspect=0;image=https://thumbs.dreamstime.com/b/sata-hard-disk-drive-isolated-23556430.jpg;" parent="1" vertex="1">
          <mxGeometry x="1272" y="1384" width="263.64" height="182.25" as="geometry" />
        </mxCell>
        <mxCell id="6TATtCABWgqQkM9xj-CV-8" value="" style="shape=image;verticalLabelPosition=bottom;labelBackgroundColor=default;verticalAlign=top;aspect=fixed;imageAspect=0;image=http://www.pngmart.com/files/7/Network-PNG-Free-Download.png;" parent="1" vertex="1">
          <mxGeometry x="1598" y="1389" width="226.26" height="193" as="geometry" />
        </mxCell>
        <mxCell id="6TATtCABWgqQkM9xj-CV-28" value="&lt;h1&gt;&lt;font face=&quot;Times New Roman&quot; style=&quot;font-size: 45px;&quot;&gt;ARSITEKTUR MULTIPROSESOR&lt;/font&gt;&lt;/h1&gt;" style="rounded=1;whiteSpace=wrap;html=1;fillColor=#f5f5f5;gradientColor=#b3b3b3;strokeColor=#666666;" parent="1" vertex="1">
          <mxGeometry x="316" y="1245" width="1288" height="76" as="geometry" />
        </mxCell>
        <mxCell id="6TATtCABWgqQkM9xj-CV-45" value="" style="edgeStyle=orthogonalEdgeStyle;rounded=0;orthogonalLoop=1;jettySize=auto;html=1;fillColor=#0050ef;strokeColor=#001DBC;curved=0;verticalAlign=middle;fontStyle=1;labelBorderColor=default;textShadow=1;fontFamily=Times New Roman;shadow=1;fontSize=51;strokeWidth=10;" parent="1" source="6TATtCABWgqQkM9xj-CV-33" edge="1">
          <mxGeometry relative="1" as="geometry">
            <mxPoint x="178.76000000000022" y="1731" as="targetPoint" />
          </mxGeometry>
        </mxCell>
        <mxCell id="6TATtCABWgqQkM9xj-CV-33" value="&lt;h3&gt;&lt;font style=&quot;font-size: 32px;&quot; face=&quot;Times New Roman&quot;&gt;CPU 1&lt;/font&gt;&lt;/h3&gt;" style="text;html=1;align=center;verticalAlign=middle;resizable=0;points=[];autosize=1;strokeColor=none;fillColor=none;" parent="1" vertex="1">
          <mxGeometry x="124.76" y="1564" width="108" height="78" as="geometry" />
        </mxCell>
        <mxCell id="6TATtCABWgqQkM9xj-CV-47" value="" style="edgeStyle=orthogonalEdgeStyle;rounded=0;orthogonalLoop=1;jettySize=auto;html=1;fillColor=#0050ef;strokeColor=#001DBC;strokeWidth=10;" parent="1" source="6TATtCABWgqQkM9xj-CV-34" edge="1">
          <mxGeometry relative="1" as="geometry">
            <mxPoint x="475.77" y="1729" as="targetPoint" />
          </mxGeometry>
        </mxCell>
        <mxCell id="6TATtCABWgqQkM9xj-CV-34" value="&lt;h3&gt;&lt;font style=&quot;font-size: 32px;&quot; face=&quot;Times New Roman&quot;&gt;CPU 2&lt;/font&gt;&lt;/h3&gt;" style="text;html=1;align=center;verticalAlign=middle;resizable=0;points=[];autosize=1;strokeColor=none;fillColor=none;" parent="1" vertex="1">
          <mxGeometry x="421.77" y="1562" width="108" height="78" as="geometry" />
        </mxCell>
        <mxCell id="6TATtCABWgqQkM9xj-CV-49" value="" style="edgeStyle=orthogonalEdgeStyle;rounded=0;orthogonalLoop=1;jettySize=auto;html=1;fillColor=#0050ef;strokeColor=#001DBC;strokeWidth=10;" parent="1" source="6TATtCABWgqQkM9xj-CV-38" edge="1">
          <mxGeometry relative="1" as="geometry">
            <mxPoint x="779.75" y="1731" as="targetPoint" />
          </mxGeometry>
        </mxCell>
        <mxCell id="6TATtCABWgqQkM9xj-CV-38" value="&lt;h3&gt;&lt;font face=&quot;Times New Roman&quot; style=&quot;font-size: 32px;&quot;&gt;CPU 3&lt;/font&gt;&lt;/h3&gt;" style="text;html=1;align=center;verticalAlign=middle;resizable=0;points=[];autosize=1;strokeColor=none;fillColor=none;" parent="1" vertex="1">
          <mxGeometry x="725.75" y="1564" width="108" height="78" as="geometry" />
        </mxCell>
        <mxCell id="6TATtCABWgqQkM9xj-CV-40" value="&lt;h3 style=&quot;forced-color-adjust: none; color: rgb(255, 255, 255); font-family: Helvetica; font-style: normal; font-variant-ligatures: normal; font-variant-caps: normal; letter-spacing: normal; orphans: 2; text-align: center; text-indent: 0px; text-transform: none; widows: 2; word-spacing: 0px; -webkit-text-stroke-width: 0px; white-space: nowrap; background-color: rgb(27, 29, 30); text-decoration-thickness: initial; text-decoration-style: initial; text-decoration-color: initial; box-shadow: none !important;&quot;&gt;&lt;br&gt;&lt;/h3&gt;" style="text;whiteSpace=wrap;html=1;" parent="1" vertex="1">
          <mxGeometry x="1123.142822265625" y="1872.999982561384" width="118" height="88" as="geometry" />
        </mxCell>
        <mxCell id="6TATtCABWgqQkM9xj-CV-51" value="" style="edgeStyle=orthogonalEdgeStyle;rounded=0;orthogonalLoop=1;jettySize=auto;html=1;fillColor=#0050ef;strokeColor=#001DBC;strokeWidth=10;" parent="1" source="6TATtCABWgqQkM9xj-CV-41" edge="1">
          <mxGeometry relative="1" as="geometry">
            <mxPoint x="1084.75" y="1733.25" as="targetPoint" />
          </mxGeometry>
        </mxCell>
        <mxCell id="6TATtCABWgqQkM9xj-CV-41" value="&lt;h3&gt;&lt;font face=&quot;Times New Roman&quot; style=&quot;font-size: 32px;&quot;&gt;CPU 4&lt;/font&gt;&lt;/h3&gt;" style="text;html=1;align=center;verticalAlign=middle;resizable=0;points=[];autosize=1;strokeColor=none;fillColor=none;" parent="1" vertex="1">
          <mxGeometry x="1030.75" y="1566.25" width="108" height="78" as="geometry" />
        </mxCell>
        <mxCell id="6TATtCABWgqQkM9xj-CV-53" value="" style="edgeStyle=orthogonalEdgeStyle;rounded=0;orthogonalLoop=1;jettySize=auto;html=1;fillColor=#0050ef;strokeColor=#001DBC;strokeWidth=10;" parent="1" source="6TATtCABWgqQkM9xj-CV-42" edge="1">
          <mxGeometry relative="1" as="geometry">
            <mxPoint x="1403.8199999999997" y="1733.25" as="targetPoint" />
          </mxGeometry>
        </mxCell>
        <mxCell id="6TATtCABWgqQkM9xj-CV-42" value="&lt;h3&gt;&lt;font face=&quot;Times New Roman&quot; style=&quot;font-size: 32px;&quot;&gt;Hard Disk&lt;/font&gt;&lt;/h3&gt;" style="text;html=1;align=center;verticalAlign=middle;resizable=0;points=[];autosize=1;strokeColor=none;fillColor=none;" parent="1" vertex="1">
          <mxGeometry x="1323.32" y="1566.25" width="161" height="78" as="geometry" />
        </mxCell>
        <mxCell id="6TATtCABWgqQkM9xj-CV-65" value="" style="edgeStyle=orthogonalEdgeStyle;rounded=0;orthogonalLoop=1;jettySize=auto;html=1;fillColor=#0050ef;strokeColor=#001DBC;strokeWidth=10;" parent="1" source="6TATtCABWgqQkM9xj-CV-43" edge="1">
          <mxGeometry relative="1" as="geometry">
            <mxPoint x="1711.13" y="1733.25" as="targetPoint" />
          </mxGeometry>
        </mxCell>
        <mxCell id="6TATtCABWgqQkM9xj-CV-43" value="&lt;h3&gt;&lt;font face=&quot;Times New Roman&quot; style=&quot;font-size: 32px;&quot;&gt;Network&lt;/font&gt;&lt;/h3&gt;" style="text;html=1;align=center;verticalAlign=middle;resizable=0;points=[];autosize=1;strokeColor=none;fillColor=none;" parent="1" vertex="1">
          <mxGeometry x="1642.63" y="1566.25" width="137" height="78" as="geometry" />
        </mxCell>
        <mxCell id="6TATtCABWgqQkM9xj-CV-63" value="" style="shape=image;verticalLabelPosition=bottom;labelBackgroundColor=default;verticalAlign=top;aspect=fixed;imageAspect=0;image=https://img2.pngdownload.id/20180606/qw/kisspng-adaptec-serial-attached-scsi-disk-array-controller-storedvalue-card-5b18349c991843.4003795415283129886271.jpg;" parent="1" vertex="1">
          <mxGeometry x="1294" y="1742" width="213.34" height="176" as="geometry" />
        </mxCell>
        <mxCell id="6TATtCABWgqQkM9xj-CV-66" value="" style="shape=image;verticalLabelPosition=bottom;labelBackgroundColor=default;verticalAlign=top;aspect=fixed;imageAspect=0;image=data:image/jpeg,/9j/4AAQSkZJRgABAQEAYABgAAD/2wBDAAMCAgICAgMCAgIDAwMDBAYEBAQEBAgGBgUGCQgKCgkICQkKDA8MCgsOCwkJDRENDg8QEBEQCgwSExIQEw8QEBD/2wBDAQMDAwQDBAgEBAgQCwkLEBAQEBAQEBAQEBAQEBAQEBAQEBAQEBAQEBAQEBAQEBAQEBAQEBAQEBAQEBAQEBAQEBD/wAARCADIAMgDASIAAhEBAxEB/8QAHwAAAQUBAQEBAQEAAAAAAAAAAAECAwQFBgcICQoL/8QAtRAAAgEDAwIEAwUFBAQAAAF9AQIDAAQRBRIhMUEGE1FhByJxFDKBkaEII0KxwRVS0fAkM2JyggkKFhcYGRolJicoKSo0NTY3ODk6Q0RFRkdISUpTVFVWV1hZWmNkZWZnaGlqc3R1dnd4eXqDhIWGh4iJipKTlJWWl5iZmqKjpKWmp6ipqrKztLW2t7i5usLDxMXGx8jJytLT1NXW19jZ2uHi4+Tl5ufo6erx8vP09fb3+Pn6/8QAHwEAAwEBAQEBAQEBAQAAAAAAAAECAwQFBgcICQoL/8QAtREAAgECBAQDBAcFBAQAAQJ3AAECAxEEBSExBhJBUQdhcRMiMoEIFEKRobHBCSMzUvAVYnLRChYkNOEl8RcYGRomJygpKjU2Nzg5OkNERUZHSElKU1RVVldYWVpjZGVmZ2hpanN0dXZ3eHl6goOEhYaHiImKkpOUlZaXmJmaoqOkpaanqKmqsrO0tba3uLm6wsPExcbHyMnK0tPU1dbX2Nna4uPk5ebn6Onq8vP09fb3+Pn6/9oADAMBAAIRAxEAPwD9U6KKKACiiigAooooAKKKKACiiigAoor47/4KBft7aR+yn4dTwX4MW31P4l67amaxgkAaHSrdiVF3OP4iSG8uP+IqS3yjDAHvXxq/aO+Cv7POjJrXxd8fadoSzqzWtozGW8u8dfJt4wZHGcAsF2jIyRXwR8Sv+C3Xhu1mms/hD8FL/UUDER3/AIg1BbUHHf7PCJCQfeVT7V+W/jvx940+J3ii98a/EDxNqGv65qL77i9vpjJI3oozwqjoqqAqjAAAGKwKAP0Nl/4LY/tFteb4fhj8OEtf+ebW980n/fYuQP8Ax2u/8B/8Fv8AUFmjt/id8B7eSJmHmXeg6syMi98QTowY/wDbVa/LOigD+i39n/8Abi/Zv/aTkj0z4e+Okg1503nQdXj+x347kIjEpNgcnyncDvXvdfyt2t1c2VxFeWdxLBPA4kiliYq8bg5DKRyCDyCK/VD/AIJ5/wDBTjVtQ1bSvgT+0lrYuftZWz0LxbdyYk83pHbXrH7+7hVnPO7Afdu3qAfqpRRRQAUUUUAFFFFABRRRQAUUUUAFFFFABRRRQAUUUUAFFfOv7VP7dXwR/ZRszY+K9Rk1vxZPF5lp4a0xla6YEfK8zH5beM8fM/zEZKK+DX5YfGb/AIKw/tVfE66nt/B+t2fw80VyVjtNEhV7nZ233coMm7/ajEY9qAP2r+LnxM8P/Bv4ZeJfil4pk26Z4a06a/mXdtaZlHyQqT/HI5VF/wBpxX82HxU+J3i74yfELXPib461Jr3W9fu2urmQ/dTPCRoP4Y0QKir2VQO1S+LvjL8XviBDNbeO/in4u8RQXDBpYdU1q5uo3IO4ZWRyOCARxxgYrj6ACiiigAooooAKKKKAP3h/4JfftPXn7QfwDHh3xVeNceLPh60OkahM77nu7RkP2S4bvuKI8bE5LNCWJ+avsevw4/4I+/EG78K/taR+D/tbJZ+NNDvbCSEn5XmgT7VG2P7yrDKB7O3rX7j0AFFFFABRRRQAUUUUAFFFFABRRVe/1Cx0qxuNT1S9gs7O0jaa4uLiRY44o1GWd2YgKoAJJJwKALFFfC3xx/4K9fs4/DG8n0P4d2OpfEnU7clWl011tdNDDqv2qQEv7NHG6Hs1fMesf8FuvjBNdM/h/wCC/g6yti3yx3l3dXTgehdGiBPvtFAH7C18d/8ABRH9uS2/ZV8Fw+E/BM1vc/EnxNbs2nRyKHTS7XJVr2VDwxyCsaHhmVicqhVvmTwL/wAFv9UW6jh+JfwHtZLZv9Zc6FqzI6e4hmRg308xfrX57/H74zeI/wBoD4veJvi14nkcXOu3rSwW7NuW0tV+WC3X2jjCr7kEnkmgDjvEHiHXfFmuX3ibxNq93quranO1zeXt3M0s08rHLO7sckk+tZ9FFABRRRQAUUV9AeB/2BP2wviN4dh8V+FfgXrcmmXEYmglvZ7awaaMjIdI7mWN3UjkEKQQQRmgD5/oro/H/wAOfHnwr8ST+D/iP4R1Tw5rNuAz2eo2zQyFDnDrkYdDg4ZcqccE1zlABRRRQBq+FfFnijwP4gs/FfgzxBqOh61pzmS01DT7l7e4gYqVJSRCGXKswODyCR0NfUXwt/4Klftg/Da7h/tHx7B4z02NvnsfEdmk+8d/38eycHHTMhA9D0r5IooA/ev9kn/gpR8Gf2mrq18G6tG3gnx3OAkekX86vBfvjkWlxgCRv+mbBX5+UMATX17X8rUFxPazx3VrM8M0LCSOSNirIwOQwI5BB5yK/aP/AIJj/t6Xnx00wfAz4u6p53jvRrUyaXqUzfPrdnGBuDk/euYxyx6umXPKuxAP0CooooAKKKKACiiigDP8Qa9ovhXQ9Q8TeI9Tt9O0rSraS8vby4cJFbwRqWeR2PQBQSfpX4Q/t1ft+eNf2pvEl14V8LXl5onwx0+fbY6YrFJNTKHi6u8csTwViPyoMdWyx+yv+CzX7QF94T+H/hz9n/w9fNBc+MWbVdbMbYb+z4HAihP+zJMCx/698dCa/HugAooooAKKKKACiiigAoortPgz8K/EXxu+Kfhn4U+FU/4mXiXUI7NJCpZYI+WlmYDnbHGryNjshoA+2v8AglH+xhbfFbxU37QnxK0dbjwn4XuvK0OzuI8x6lqaYJlZT96KDIPo0hUchHU/b/7UH/BSv4M/sw/Eyz+F2saFrHiXVFjjn1k6S8WNLjkwUVt7DfKVIfy8rhWUlucV1fxt+IngH9gH9klX8L2ECQ+GtPi0Pwxp8p5vdQdTsL4xuJbzJ5TwWCyHqa/J39h79mnxJ+25+0JqHib4j3d7feG9Nu/7c8YalIx3300sjOtrvGCHmYPkjG2NZCMHbkA/Sf8A4KP/AAn8C/tAfsfan8UrG3gm1LwvpUfirw9qnl7ZPsrKkk0ZJG7ZJASdh/jWM9Vr8Iq/av8A4KuftLeGfhD8Dz+zr4W8hfEnjeyjt2tYAFXTNGRwGcqOB5nlmFFx93zTxtGfxUoAKKKKACiiigArf8AeOvEnwy8baJ8QfB+oNZa14fvotQsph0WSNgQGH8SnlWU8FSQeDWBRQB/Tf8D/AIsaH8cvhH4V+LPh3C2fiXTo7zyd24283KzQk9zHKskZPqhrua/OT/gin8TrjX/g741+Fd7cGRvCOsxahaKzfctr5Gyij+6JbeVvrKfWv0boAKKKKACiiigD8Gv+Csnii68QftreKdLnctF4c0zStLt+eiNaR3JA/wCB3T/rXx5X1x/wVW8P3Wh/tueNbyaMrFrdppWoW+R95PsEMLEev7yCT8q+R6ACiiigAooooAKKKKACv1G/4Ip/A2O81Txl+0NrFnuWwA8M6KzLkCVwst3IM9CENugI7SyCvy5r+gr9jjw7pP7Nv7CPhbWdch8mPT/C0/jPWG6OfOje9cNn+JY2WP8A7ZigD86/+CvHx6uvib+0Da/BvQbpptF+HsIt5IovmE+rXCq8x4+8UTyogOqssv8AeNfop+zL8MfCf7Cv7Hq3njNUs7nStLm8UeLrhQDJJetEHeIc/MUVUgQD7xRe7Gvyo/YR8F6l+07+3Po/iLxin28R6reeOddZl3K7xSGZdwPBVrqSBSDxhiPavt//AILQfGabwv8AB3wx8GNLuilz421Fr7UVVutjZ7WCMPRp5IWH/XBqAPyn+OHxg8VfHr4q+Ivix4ym3ajr9404hDEpawD5YbdM/wAEcYVB3O3J5JrhaKKACiiigAooooAKKKKAP0Z/4Ik6xND8dPH2gqx8m88Ji8ZfVobyFF/Sdvzr9j6/H7/giH4cuLr4sfEjxcsZMOm+HbbTWbsGubkSKPxFo35V+wNABRRRQAUUUUAfl7/wWo+BN5qWj+EP2iNFsmlXSFPhvXHVcmOCRzJaSH0USPMhJ/imjHevyZr+onx94F8L/E3wXrPw/wDGmlx6joev2cljfWz/AMcbjGQeqsDhlYcqwBHIFfz7/th/sc/EL9krx9NpOsW1xqXhHUJnOgeIFj/dXcXJEUhHEdwo+8h64LLlSDQB8/UUUUAFFFFABRRRQBpeGNDn8TeJNJ8N2uRNq19BYx4GfmlkVB+rV+93/BRzxBD8Nv2GvHlno/8AowuLCx8P2ka8ARTXEMLp9PJMn5V+JX7MVnHqP7Snwm0+ZQyXXjjQYWB7hr+EH+dfrp/wWRvpLP8AZHtLeMkLe+L9OgfHcCG5k5/GMUAeEf8ABD7wTHLq/wAU/iNPD+8trbTtEtZMdRK0s04/8hW/514Z/wAFdvHkviz9sHUPDomLQeDdE0/SUUH5Q8kZu3P1/wBKAP8Augdq+xP+CJunxx/s7+NdVCYkuPGktuzeojsbRgP/ACKfzr83/wBvDVJdY/bE+LV3MxLR+Jbi1Gf7sO2Jf0QUAeDUUUUAFFFFABRRRQAUUV9WfsE/sR+Jv2q/iBb6xr2n3Vl8NdCuVfW9SIKC8ZcN9ht2/ikcY3MP9WhyfmKKwB+j/wDwSP8AgpdfDD9mNfG2s2hg1T4i3x1lQy4ZdPRfLtQfZgJZQf7s619u1X0/T7HSdPttK0uzitbOyhS3t4IUCxxRIoVUVRwAAAAB0AqxQAUUUUAFFFFABWH408D+D/iN4avfB3jzw3p2vaJqKeXc2N/AssUg7HB6MDyGGCCAQQRmtyigD81fjZ/wRZ+H/iC8uNY+BXxGvPChlJddH1iFr60U9ljnDCaNR/t+afevmjWf+COP7XGm3DRafeeBNWjH3ZLXWZUB/CaBCDX7g0UAfhX/AMOh/wBsr/oC+Ff/AAfR/wDxNH/Dof8AbK/6AvhX/wAH0f8A8TX7qUUAfhX/AMOh/wBsr/oC+Ff/AAfR/wDxNH/Dof8AbK/6AvhX/wAH0f8A8TX7qUUAfi/8E/8Aglr+1x8P/jL4C8eaxovhkWHhvxPper3Rj1uN2ENvdRyvtXHJ2ocDvX15/wAFitLk1D9kJLqNSV03xXpt0/sDHPF/OUV9yV84f8FFPBMnjz9jH4naXbwl59P0tNajx1UWU8dy5H/bOKQfQmgD55/4Il6pFN8A/HeiKw8y08YG6YdwstlbqP8A0S35V5F+0l/wSo/aT+Kvx68efEnwnq/ghNH8Ta5danZreapPHMscrlsOqwMAeTwCaP8AgiF46hs/HHxN+Gs0w8zVdLsdat4z/wBOsrxSkfX7XFn/AHa/XKgD8RP+HNP7Wn/Qa+Hf/g4uf/kaj/hzT+1p/wBBr4d/+Di5/wDkav27ooA/ET/hzT+1p/0Gvh3/AODi5/8Akaj/AIc0/taf9Br4d/8Ag4uf/kav27ooA/ET/hzT+1p/0Gvh3/4OLn/5Gq7pn/BF39qa6uFXUfGPw3sYc/O51O8kYD2VbXBP1Ir9rqKAPzg+CP8AwRf+F/ha+t9a+N/xAvvGkkLCT+ydOhOn2JI/hkk3NNKv+6YjX6F+F/C/hvwV4fsfCvhHQ7HRtH0yEQWdjYwLDBBGP4VRQAO59ySetalFABRRRQAUUUUAFFFFABRRRQAUUUUAFFFFABXA/Hj4zeF/2fvhN4i+LnjASSadoFt5ot4iBJdTuwSGBM8bnkZFz0GSTwDXfV8M/wDBY2eaH9kSGOORlWfxbp0cgB+8vlXDYPryoP4UAfnL8Vv+CmH7XXxM8SXOraf8Tb3wfprSE2mk+H9ttFbx54UyAebKcdWdjk5wFHA891T9s79qzXNLvNF1j4/eM7yw1C3ktbq3m1N2jmhkUq6MDwVZSQR6GvGaKANzwb488cfDrWP+Ei+H/jLXPDOq+U0H27R9Qms7jymxuTzImVtpwMjODgV3X/DWn7VH/RyvxT/8LDUP/j1eU0UAerf8NaftUf8ARyvxT/8ACw1D/wCPV63+z7/wUs/aa+DPiyzvvFHj/WfH/hpplGpaT4gvGu5JYs/MYbmXdLFIBnadxXONysK+TqKAP6jPA/jLQPiJ4N0Px74Vu/tWj+IdPg1OxmIwWhmQOmR/C2GAI7EEdq3K+cf+CdUkkn7FfwraRixGlTLk+gupgB+AAFfR1ABRRRQAUUUUAFFFFABRRRQAUUUUAFFFc58RPiD4R+FXgnWPiJ471iLS9C0K1a7vLmT+FRwFUdWdmIVVHLMwA5NAGn4g8Q6D4T0W88SeKNasdI0nTojPd319cLDBBGOrO7kKo9ya/Pn4+f8ABZb4U+C7y58P/A3wfdeOryFjG2rXkjWOmgjvGCpmmGeOVjB6hiK+A/2zf24viN+1p4slhmuLnRfAWnzsdH8PRyYUgEhbi62nEs5HrlUyQnVmb5poA+0/FX/BXb9snxBcNNo2veGPDEZJ2xaZoUUoA9M3RmJ/OuW/4ej/ALdn/Rcv/LZ0f/5Er5VooA+qv+Ho37dn/Rcv/LZ0f/5ErhPjJ+2t+03+0B4RTwJ8XPiZ/b2hx3kd+tr/AGNp9rieNWVH328CPwHbjdjnkdK8QooAKKKKACiiigAooooA9x8B/tuftUfDLwjpvgTwJ8ZNV0jQdIjaKysore2ZIULM5ALxlj8zMeT3re/4eMftrf8ARftb/wDAW0/+M184UUAfScP/AAUe/bZt5BJH8fNXJH9+xsnH5NCRXpvw9/4LAftaeE7iP/hL7jwz42tBgSJqOlpazFf9mS08tVb3ZGHtXw/RQB+737Mv/BUb4A/H69tPCniYy/D3xbdssUNjq1wr2d1IeAkF2AqlieAsixsSQFDGvsqv5V6/TL/gm3/wUa1fw/rGk/s9/HzX3vNCvWSy8OeIL2XMmnSH5Y7W4kPLQMcKjscxkgE7MeWAfrtRRRQAUUUUAFFFFABX47/8Fif2mrzxV8Q7L9m3wzqDLonhNYtQ14RPxc6nIm6OJscFYYnU4/vysCMoK/YG+vLfTrO41C8kEdvaxNNK5/hRQSx/AA1/MJ8TvHGpfE34jeJ/iJrDs154l1e71WbcfumaVn2j0ADYA7AAUAczRRWz4d8F+MvGBmXwn4T1nWzbYMw06wlufLz03eWp25wevpQB2n7N3wF8TftLfF/RfhD4V1Gz0661UTSy3t3kxW0EUbSSSFV5Y4XAUdWIBIGSO2/bK/Y58Vfsd+NNH8Na74osfEdh4gsnvNP1G2t2ty3luFkjeJmbYykqeGYEMOc5A9r/AOCV/wAM/iP4Z/bC0HVvEnw/8SaTYppOqK1zfaTPBErG3YAF3QAEnpzXs/8AwWh8C+NvGHjD4XTeEvB2ua2ltpuprM2nafNciImWDAYxqdpODjPoaAPyqorode+HPxC8K2Q1LxR4D8RaPaFxGLi/0ue3jLHou51AyfSueoAKKKKACiiigAooooAK9T/4ZW/aQ/4Qf/hZX/CkfGP/AAjP2P8AtD+0v7Kl8v7Lt3efjG7y9vzb8bdvzZxzXllfq1N/wWq8Kt8LTpMXwS1EeL20r7Jsa8h/soXHl7N/TzDFn5vL25x8u7+KgD8pa7j4Y/A/4v8Axomvbf4U/DjXvFLaaqteNptm0qW+7O0O4+VS2GwCcnacdDXD19t/sAf8FB/Dn7IfhTxL4H8YfD3UNc0/WtSXVre70yaNLiKXyliaN1kwGQhEIIYbTu4O7gA+QPGvgXxl8N/El14P8feF9T8P61ZbftFhqNs0EyBgCpKsAcEEEEcEEEZFYde//tvftRWv7W3xqHxM03wm/h/T7LSbfRbK2llWSeSKKSWTzJWUBd5adxgZwoUZOM14BQB+9v8AwTJ/aYvP2hv2eYNO8Uag134t8CSJouqzSNmS5g25tLlj1JeNSjMeWeGRj1r67r8Rv+COPxEuPC/7Ul34Haciz8a+H7q38ndgNc22LiN8dysaXA/4Ga/bmgAooooAKKKKAOQ+MQuG+EfjdbTd558Oal5W3rv+yyYx75r+Yav6ory0t7+0nsbuMSQXMbQyIejIwII/EGv5iPix4B1D4V/E7xX8N9USRbnwzrF3pbGRcFxFKyK/uGUBgehDAigDlK/Sj/gnb/wUI+AX7N/wTu/hf8TtH1vT9TTWLjUVv9NsFuI75JVQAuQwYSLs28gjaEwc5A/NeigD+gf4K/8ABRz9mz4+fErSfhT8P77xHJr2tC4a1W80owxHyYJJ33PuOPkibHHXArtP2k/2wPg3+yl/wjo+LVzq8X/CUfa/7P8A7PsTc5+zeT5u7BG3/Xx49efSvxr/AOCX+oWOm/tyfDaa/uoreOVtVt0aRgoaSTTLpI0ye7MyqB3JA6mvqT/guVf2Umo/BrS47qJru3h1+4lgDDekcjWCo5HUBjFIAe+xvSgDq/2rP+Co37L3xO/Z98b/AA38I6T4j1zV/E+lS6ZaQ3ulrBbwSSDC3DuznHlHEi7QSWRen3h+RNFFABXe/Db4CfGr4xW91efC34W+JvE9tYuI7m403TpJoYnIyEaQDaGwc7c5xziuCr+kT9jz4T/8KT/Zn+H3w9uLBbTULPRobrVI9m1hfXA864DepWSRlyeyigD8Lf8Ahhv9r7/o3Xxx/wCCt6P+GG/2vv8Ao3Xxx/4K3r+jaigD+W7xZ4P8V+A/EF34V8beG9S0HWbFgtzYajavbzxEjI3I4BAIIIPQggjisiv1l/4La/CeO48P/D/42adpqCayup/DmqXKJ87xyr51qHPXarR3IGe8uO4r8mqACpPs9x5P2jyJPKzt8zadufTPSo6/am4/4KYfsKn9npvCyW87ofDv9njwL/YE4X/U7PsfmeX9m2543+ZjHPXigD8VqfDDNcP5dvC8j9dqKSfyFMr9D/8Aglz+19+zf+zd4X8ZaD8YrqTw/rOr6hFd2+tJpc12Li1EaqLUmBHkXY4dwCNp8w85FAH54srKxVlIIOCD2pK+m/8Agoj8cPhH+0F+0ZcePvgzYuujrpFrY3V+9mbY6peRvKzXRRgHHyPFFlwGIhHGMV8yUAfTv/BM5rhP24vhe1t9/wC06iD/ALp026Df+O5r+guvxH/4I4/DO68WftQXnxAa3b7B4F0O4nM2OFu7sG3ijPoWia5b/tma/bigAooooAKKKKACvyL/AOCxf7Lt9o/iyy/ag8J6c8ul62kOmeJ/LTItryNRHb3DY6LJGFiJPAaNOcyCv10rI8XeEfDfj3wvqngvxjo9vquiazavZ31ncLlJonGCp7g9wRgggEEEA0Afy3UV9g/tvf8ABPH4gfsw6zeeMPB9pe+JPhncStJb6lFGZJ9KUniG9Cj5cZwJh8jcZ2sdtfH1AD4Lie1njurWZ4ZoWEkckbFWRgchgRyCDzkVd1zxF4g8Uag2reJdc1DVr1lCNc31y88pUdAXck4HYZrPooAKKK9v/Zb/AGQ/i1+1b4vj0PwLpT2mh20qjV/EV1E32LT4+py3HmSkfdiU7j32rlgAekf8E1f2W7z9oj4+WGu61pzP4K8CzQ6vrMjr+7uJlbdbWfoTI67mH/PNH6EjP7415x+z/wDAXwD+zd8MtN+F/wAO7ExWNkDLdXUoBuL+6YDzLiZgPmdsD2VQqjCqBXo9ABRRRQB5t+0Z8FdF/aG+C3in4Ra5IkK67ZFbW6Zc/ZLxCJLeb1wsqoSB1XcO9fze+OvBHib4a+MtZ8A+M9Ll07W9BvJLG+tpOqSocHB6Mp4KsOGUgjIIr+ouvir/AIKD/wDBPvTv2otL/wCFjfDn7LpnxM0q28pfMIjg1uBAdtvM3RJV6Rynj+B/l2tGAfhZRWz4y8F+LPh74kvvB/jjw7f6HrWmSmG6sb2FopYmHqD1B6hhwQQQSDmsagAooooAKdDDNcTJb28TySyMEREUlmY8AADkkmpLKxvNSvINO02zmuru6kWGCCGMvJLIxwqqo5ZiSAAOSTX63f8ABOf/AIJqah4D1PTfj5+0No6xa9bFbrw74anUMdPfqt1dqeBOOCkf/LM4ZvnAVAD6P/4J1fsv3H7Mv7P9pY+JLIQeMfFki61r6svz2zMgENoT/wBMk6jtI8uOCK+paKKACiiigAooooAKKKKAI7i3guoJLW6hjmhmQxyRyKGV1IwVIPBBHGDXxd8eP+CTv7M/xeurnXfB9ve/DjW58sz6GqNp7uf4ns3+VR7QtEKKKAPkLxX/AMETPjtY3D/8IV8WPA2sWy/dbUVu7CVv+AJHMo/77rM0P/giv+0teXAGu+Pvh1ptv/E0V5eXEn4J9mUH/voUUUAfTXwX/wCCM/wR8GXUGrfF/wAYat4/uYsN9gijOmaeT1w6o7TPj2kUHnK84r728L+FfDPgjQbPwv4O8P6fomj6fGIrWxsLdYIIV9FRAAP60UUAatFFFABRRRQAUUUUAeV/Hb9mH4IftIaOmk/FrwLZ6rLAhS01GPMF/aA8/urhMOozzsJKE9VNfn98Tv8AgiKzXUt38GvjWqW7E+XYeJbElkHbNzb/AHv+/I6UUUAePTf8EY/2sIrjyY/Efw3mTP8Arl1e7C/k1qG/SvQ/h9/wRF8eXVzHL8VPjXoOm26kNJB4fsZr2SQd1Ek4hCH/AGtjfSiigD7z/Z1/YY/Z1/Zl8vUvAfhA3/iJU2N4h1lxdX5yMHY20JDkZB8pEyOua+gKKKACiiigAooooA//2Q==;" parent="1" vertex="1">
          <mxGeometry x="1625.63" y="1742" width="171" height="171" as="geometry" />
        </mxCell>
        <mxCell id="6TATtCABWgqQkM9xj-CV-83" value="" style="edgeStyle=orthogonalEdgeStyle;rounded=0;orthogonalLoop=1;jettySize=auto;html=1;fillColor=#0050ef;strokeColor=#001DBC;strokeWidth=10;" parent="1" source="6TATtCABWgqQkM9xj-CV-67" target="6TATtCABWgqQkM9xj-CV-75" edge="1">
          <mxGeometry relative="1" as="geometry" />
        </mxCell>
        <mxCell id="6TATtCABWgqQkM9xj-CV-67" value="&lt;h3&gt;&lt;font face=&quot;Times New Roman&quot; style=&quot;font-size: 25px;&quot;&gt;&lt;font style=&quot;&quot;&gt;Disk &lt;/font&gt;Controller&lt;/font&gt;&lt;/h3&gt;" style="text;html=1;align=center;verticalAlign=middle;resizable=0;points=[];autosize=1;strokeColor=none;fillColor=none;" parent="1" vertex="1">
          <mxGeometry x="1308.1699999999998" y="1910" width="185" height="70" as="geometry" />
        </mxCell>
        <mxCell id="6TATtCABWgqQkM9xj-CV-78" value="" style="edgeStyle=orthogonalEdgeStyle;rounded=0;orthogonalLoop=1;jettySize=auto;html=1;fillColor=#0050ef;strokeColor=#001DBC;strokeWidth=10;" parent="1" source="6TATtCABWgqQkM9xj-CV-69" target="6TATtCABWgqQkM9xj-CV-75" edge="1">
          <mxGeometry relative="1" as="geometry" />
        </mxCell>
        <mxCell id="6TATtCABWgqQkM9xj-CV-69" value="&lt;h3&gt;&lt;font face=&quot;Times New Roman&quot; style=&quot;font-size: 25px;&quot;&gt;Network Controller&lt;/font&gt;&lt;/h3&gt;" style="text;html=1;align=center;verticalAlign=middle;resizable=0;points=[];autosize=1;strokeColor=none;fillColor=none;" parent="1" vertex="1">
          <mxGeometry x="1596.63" y="1910" width="229" height="70" as="geometry" />
        </mxCell>
        <mxCell id="6TATtCABWgqQkM9xj-CV-79" value="" style="edgeStyle=orthogonalEdgeStyle;rounded=0;orthogonalLoop=1;jettySize=auto;html=1;fillColor=#0050ef;strokeColor=#001DBC;strokeWidth=10;" parent="1" source="6TATtCABWgqQkM9xj-CV-71" target="6TATtCABWgqQkM9xj-CV-75" edge="1">
          <mxGeometry relative="1" as="geometry" />
        </mxCell>
        <mxCell id="6TATtCABWgqQkM9xj-CV-71" value="&lt;h3&gt;&lt;font face=&quot;Times New Roman&quot; style=&quot;font-size: 25px;&quot;&gt;Cache Memory&lt;/font&gt;&lt;/h3&gt;" style="text;html=1;align=center;verticalAlign=middle;resizable=0;points=[];autosize=1;strokeColor=none;fillColor=none;" parent="1" vertex="1">
          <mxGeometry x="87.26" y="1913" width="183" height="70" as="geometry" />
        </mxCell>
        <mxCell id="6TATtCABWgqQkM9xj-CV-80" value="" style="edgeStyle=orthogonalEdgeStyle;rounded=0;orthogonalLoop=1;jettySize=auto;html=1;fillColor=#0050ef;strokeColor=#001DBC;strokeWidth=10;" parent="1" source="6TATtCABWgqQkM9xj-CV-72" target="6TATtCABWgqQkM9xj-CV-75" edge="1">
          <mxGeometry relative="1" as="geometry" />
        </mxCell>
        <mxCell id="6TATtCABWgqQkM9xj-CV-72" value="&lt;h3&gt;&lt;font style=&quot;font-size: 25px;&quot; face=&quot;Times New Roman&quot;&gt;Cache Memory&lt;/font&gt;&lt;/h3&gt;" style="text;html=1;align=center;verticalAlign=middle;resizable=0;points=[];autosize=1;strokeColor=none;fillColor=none;" parent="1" vertex="1">
          <mxGeometry x="386.77" y="1910" width="183" height="70" as="geometry" />
        </mxCell>
        <mxCell id="6TATtCABWgqQkM9xj-CV-81" value="" style="edgeStyle=orthogonalEdgeStyle;rounded=0;orthogonalLoop=1;jettySize=auto;html=1;fillColor=#0050ef;strokeColor=#001DBC;strokeWidth=10;" parent="1" source="6TATtCABWgqQkM9xj-CV-73" target="6TATtCABWgqQkM9xj-CV-75" edge="1">
          <mxGeometry relative="1" as="geometry" />
        </mxCell>
        <mxCell id="6TATtCABWgqQkM9xj-CV-73" value="&lt;h3&gt;&lt;font style=&quot;font-size: 25px;&quot; face=&quot;Times New Roman&quot;&gt;Cache Memory&lt;/font&gt;&lt;/h3&gt;" style="text;html=1;align=center;verticalAlign=middle;resizable=0;points=[];autosize=1;strokeColor=none;fillColor=none;" parent="1" vertex="1">
          <mxGeometry x="688.25" y="1910" width="183" height="70" as="geometry" />
        </mxCell>
        <mxCell id="6TATtCABWgqQkM9xj-CV-82" value="" style="edgeStyle=orthogonalEdgeStyle;rounded=0;orthogonalLoop=1;jettySize=auto;html=1;fillColor=#0050ef;strokeColor=#001DBC;strokeWidth=10;" parent="1" source="6TATtCABWgqQkM9xj-CV-74" target="6TATtCABWgqQkM9xj-CV-75" edge="1">
          <mxGeometry relative="1" as="geometry" />
        </mxCell>
        <mxCell id="6TATtCABWgqQkM9xj-CV-74" value="&lt;h3&gt;&lt;font style=&quot;font-size: 25px;&quot; face=&quot;Times New Roman&quot;&gt;Cache Memory&lt;/font&gt;&lt;/h3&gt;" style="text;html=1;align=center;verticalAlign=middle;resizable=0;points=[];autosize=1;strokeColor=none;fillColor=none;" parent="1" vertex="1">
          <mxGeometry x="993.26" y="1913" width="183" height="70" as="geometry" />
        </mxCell>
        <mxCell id="6TATtCABWgqQkM9xj-CV-89" value="" style="edgeStyle=orthogonalEdgeStyle;rounded=0;orthogonalLoop=1;jettySize=auto;html=1;" parent="1" source="6TATtCABWgqQkM9xj-CV-75" edge="1">
          <mxGeometry relative="1" as="geometry">
            <mxPoint x="963.5" y="2186.5" as="targetPoint" />
          </mxGeometry>
        </mxCell>
        <mxCell id="6TATtCABWgqQkM9xj-CV-75" value="&lt;h3&gt;&lt;font face=&quot;Times New Roman&quot; style=&quot;font-size: 32px; color: light-dark(rgb(0, 0, 0), rgb(230, 208, 222));&quot;&gt;BUS&lt;/font&gt;&lt;/h3&gt;" style="rounded=0;whiteSpace=wrap;html=1;labelBackgroundColor=none;fillColor=#d0cee2;strokeColor=#56517e;" parent="1" vertex="1">
          <mxGeometry x="88" y="2057" width="1751" height="53" as="geometry" />
        </mxCell>
        <mxCell id="6TATtCABWgqQkM9xj-CV-91" value="" style="shape=image;verticalLabelPosition=bottom;labelBackgroundColor=default;verticalAlign=top;aspect=fixed;imageAspect=0;image=https://www.pngall.com/wp-content/uploads/5/RAM-PNG-High-Quality-Image.png;" parent="1" vertex="1">
          <mxGeometry x="802.5" y="2167" width="322" height="161" as="geometry" />
        </mxCell>
        <mxCell id="6TATtCABWgqQkM9xj-CV-92" value="&lt;h3&gt;&lt;font face=&quot;Times New Roman&quot; style=&quot;font-size: 28px;&quot;&gt;Main Memory&lt;/font&gt;&lt;/h3&gt;" style="text;html=1;align=center;verticalAlign=middle;resizable=0;points=[];autosize=1;strokeColor=none;fillColor=none;" parent="1" vertex="1">
          <mxGeometry x="868" y="2303" width="191" height="74" as="geometry" />
        </mxCell>
        <mxCell id="2P4dZALBO7Dz5OYgTt-9-17" value="" style="shape=image;verticalLabelPosition=bottom;labelBackgroundColor=default;verticalAlign=top;aspect=fixed;imageAspect=0;image=https://png.pngtree.com/png-vector/20240518/ourmid/pngtree-cpu-system-on-chip-soc-smart-technology-flat-design-isolated-stock-png-image_12482276.png;" parent="1" vertex="1">
          <mxGeometry x="282" y="2541.04" width="238.96" height="238.96" as="geometry" />
        </mxCell>
        <mxCell id="2P4dZALBO7Dz5OYgTt-9-18" value="" style="shape=image;verticalLabelPosition=bottom;labelBackgroundColor=default;verticalAlign=top;aspect=fixed;imageAspect=0;image=https://png.pngtree.com/png-vector/20240518/ourmid/pngtree-cpu-system-on-chip-soc-smart-technology-flat-design-isolated-stock-png-image_12482276.png;" parent="1" vertex="1">
          <mxGeometry x="282" y="3296.04" width="239.31" height="239.31" as="geometry" />
        </mxCell>
        <mxCell id="2P4dZALBO7Dz5OYgTt-9-19" value="" style="shape=image;verticalLabelPosition=bottom;labelBackgroundColor=default;verticalAlign=top;aspect=fixed;imageAspect=0;image=https://png.pngtree.com/png-vector/20240518/ourmid/pngtree-cpu-system-on-chip-soc-smart-technology-flat-design-isolated-stock-png-image_12482276.png;" parent="1" vertex="1">
          <mxGeometry x="282" y="3047.04" width="239.31" height="239.31" as="geometry" />
        </mxCell>
        <mxCell id="2P4dZALBO7Dz5OYgTt-9-20" value="" style="shape=image;verticalLabelPosition=bottom;labelBackgroundColor=default;verticalAlign=top;aspect=fixed;imageAspect=0;image=https://png.pngtree.com/png-vector/20240518/ourmid/pngtree-cpu-system-on-chip-soc-smart-technology-flat-design-isolated-stock-png-image_12482276.png;" parent="1" vertex="1">
          <mxGeometry x="282" y="2795.04" width="239.31" height="239.31" as="geometry" />
        </mxCell>
        <mxCell id="2P4dZALBO7Dz5OYgTt-9-25" value="" style="shape=image;verticalLabelPosition=bottom;labelBackgroundColor=default;verticalAlign=top;aspect=fixed;imageAspect=0;image=https://cdn2.iconfinder.com/data/icons/cloud-computing-143/66/9-512.png;" parent="1" vertex="1">
          <mxGeometry x="665" y="2834.29" width="160.81" height="160.81" as="geometry" />
        </mxCell>
        <mxCell id="2P4dZALBO7Dz5OYgTt-9-27" value="&lt;h1&gt;&lt;font face=&quot;Times New Roman&quot;&gt;&lt;span style=&quot;font-size: 45px;&quot;&gt;ARSITEKTUR MULTIPROSESOR SYMMETRIC&lt;/span&gt;&lt;/font&gt;&lt;/h1&gt;" style="rounded=1;whiteSpace=wrap;html=1;fillColor=#f5f5f5;strokeColor=#666666;gradientColor=#b3b3b3;" parent="1" vertex="1">
          <mxGeometry x="316" y="2460" width="1288" height="76" as="geometry" />
        </mxCell>
        <mxCell id="e9pyrwrimPvbQd4Hs7WH-2" value="" style="shape=image;verticalLabelPosition=bottom;labelBackgroundColor=default;verticalAlign=top;aspect=fixed;imageAspect=0;image=https://3.bp.blogspot.com/-a5YvwWCfjtk/UiGNROX_P1I/AAAAAAAAAUQ/fPevLAjZcDk/s1600/RAM_SM.png;" parent="1" vertex="1">
          <mxGeometry x="982" y="2873" width="382.3" height="255" as="geometry" />
        </mxCell>
        <mxCell id="e9pyrwrimPvbQd4Hs7WH-6" value="" style="shape=image;verticalLabelPosition=bottom;labelBackgroundColor=default;verticalAlign=top;aspect=fixed;imageAspect=0;image=https://cdn2.iconfinder.com/data/icons/cloud-computing-143/66/9-512.png;" parent="1" vertex="1">
          <mxGeometry x="665" y="3331.57" width="160.81" height="160.81" as="geometry" />
        </mxCell>
        <mxCell id="e9pyrwrimPvbQd4Hs7WH-7" value="" style="shape=image;verticalLabelPosition=bottom;labelBackgroundColor=default;verticalAlign=top;aspect=fixed;imageAspect=0;image=https://cdn2.iconfinder.com/data/icons/cloud-computing-143/66/9-512.png;" parent="1" vertex="1">
          <mxGeometry x="665" y="3086.29" width="160.81" height="160.81" as="geometry" />
        </mxCell>
        <mxCell id="e9pyrwrimPvbQd4Hs7WH-8" value="" style="shape=image;verticalLabelPosition=bottom;labelBackgroundColor=default;verticalAlign=top;aspect=fixed;imageAspect=0;image=https://cdn2.iconfinder.com/data/icons/cloud-computing-143/66/9-512.png;" parent="1" vertex="1">
          <mxGeometry x="665" y="2580.29" width="160.81" height="160.81" as="geometry" />
        </mxCell>
        <mxCell id="e9pyrwrimPvbQd4Hs7WH-10" value="" style="shape=image;verticalLabelPosition=bottom;labelBackgroundColor=default;verticalAlign=top;aspect=fixed;imageAspect=0;image=https://thumbnails.genially.com/64ff283730b9930013c75409/screenshots/8098f241-a2d7-4a7e-8cae-c125aa256597.jpg;" parent="1" vertex="1">
          <mxGeometry x="1470.1499999999999" y="2916.22" width="326.48" height="216.57" as="geometry" />
        </mxCell>
        <mxCell id="e9pyrwrimPvbQd4Hs7WH-12" value="" style="shape=image;verticalLabelPosition=bottom;labelBackgroundColor=default;verticalAlign=top;aspect=fixed;imageAspect=0;image=https://cdn3.iconfinder.com/data/icons/computer-hardware-34/64/CPU-512.png;" parent="1" vertex="1">
          <mxGeometry x="84.63999999999999" y="1381" width="188.25" height="188.25" as="geometry" />
        </mxCell>
        <mxCell id="e9pyrwrimPvbQd4Hs7WH-13" value="" style="shape=image;verticalLabelPosition=bottom;labelBackgroundColor=default;verticalAlign=top;aspect=fixed;imageAspect=0;image=https://cdn3.iconfinder.com/data/icons/computer-hardware-34/64/CPU-512.png;" parent="1" vertex="1">
          <mxGeometry x="990.63" y="1378.87" width="188.25" height="188.25" as="geometry" />
        </mxCell>
        <mxCell id="e9pyrwrimPvbQd4Hs7WH-14" value="" style="shape=image;verticalLabelPosition=bottom;labelBackgroundColor=default;verticalAlign=top;aspect=fixed;imageAspect=0;image=https://cdn3.iconfinder.com/data/icons/computer-hardware-34/64/CPU-512.png;" parent="1" vertex="1">
          <mxGeometry x="685.63" y="1380.9999999999998" width="188.25" height="188.25" as="geometry" />
        </mxCell>
        <mxCell id="e9pyrwrimPvbQd4Hs7WH-15" value="" style="shape=image;verticalLabelPosition=bottom;labelBackgroundColor=default;verticalAlign=top;aspect=fixed;imageAspect=0;image=https://cdn3.iconfinder.com/data/icons/computer-hardware-34/64/CPU-512.png;" parent="1" vertex="1">
          <mxGeometry x="384.14" y="1381" width="188.25" height="188.25" as="geometry" />
        </mxCell>
        <mxCell id="e9pyrwrimPvbQd4Hs7WH-22" value="" style="edgeStyle=none;curved=1;rounded=0;orthogonalLoop=1;jettySize=auto;html=1;fontSize=12;startSize=8;endSize=8;" parent="1" source="e9pyrwrimPvbQd4Hs7WH-16" target="2P4dZALBO7Dz5OYgTt-9-17" edge="1">
          <mxGeometry relative="1" as="geometry" />
        </mxCell>
        <mxCell id="e9pyrwrimPvbQd4Hs7WH-23" value="" style="edgeStyle=none;curved=1;rounded=0;orthogonalLoop=1;jettySize=auto;html=1;fontSize=12;startSize=8;endSize=8;" parent="1" source="e9pyrwrimPvbQd4Hs7WH-16" target="2P4dZALBO7Dz5OYgTt-9-17" edge="1">
          <mxGeometry relative="1" as="geometry" />
        </mxCell>
        <mxCell id="e9pyrwrimPvbQd4Hs7WH-16" value="" style="shape=image;verticalLabelPosition=bottom;labelBackgroundColor=default;verticalAlign=top;aspect=fixed;imageAspect=0;image=https://cdn3.iconfinder.com/data/icons/computer-hardware-34/64/CPU-512.png;" parent="1" vertex="1">
          <mxGeometry x="66.99999999999999" y="2566.57" width="188.25" height="188.25" as="geometry" />
        </mxCell>
        <mxCell id="e9pyrwrimPvbQd4Hs7WH-17" value="" style="shape=image;verticalLabelPosition=bottom;labelBackgroundColor=default;verticalAlign=top;aspect=fixed;imageAspect=0;image=https://cdn3.iconfinder.com/data/icons/computer-hardware-34/64/CPU-512.png;" parent="1" vertex="1">
          <mxGeometry x="66.99999999999999" y="3317.85" width="188.25" height="188.25" as="geometry" />
        </mxCell>
        <mxCell id="e9pyrwrimPvbQd4Hs7WH-18" value="" style="shape=image;verticalLabelPosition=bottom;labelBackgroundColor=default;verticalAlign=top;aspect=fixed;imageAspect=0;image=https://cdn3.iconfinder.com/data/icons/computer-hardware-34/64/CPU-512.png;" parent="1" vertex="1">
          <mxGeometry x="66.99999999999999" y="3072.57" width="188.25" height="188.25" as="geometry" />
        </mxCell>
        <mxCell id="e9pyrwrimPvbQd4Hs7WH-19" value="" style="shape=image;verticalLabelPosition=bottom;labelBackgroundColor=default;verticalAlign=top;aspect=fixed;imageAspect=0;image=https://cdn3.iconfinder.com/data/icons/computer-hardware-34/64/CPU-512.png;" parent="1" vertex="1">
          <mxGeometry x="66.99999999999999" y="2825.4700000000003" width="188.25" height="188.25" as="geometry" />
        </mxCell>
        <mxCell id="e9pyrwrimPvbQd4Hs7WH-21" value="" style="endArrow=classic;html=1;rounded=0;fontSize=12;startSize=8;endSize=8;curved=1;entryX=0;entryY=0.5;entryDx=0;entryDy=0;fillColor=#dae8fc;gradientColor=#7ea6e0;strokeColor=#6c8ebf;strokeWidth=4;" parent="1" target="2P4dZALBO7Dz5OYgTt-9-17" edge="1">
          <mxGeometry width="50" height="50" relative="1" as="geometry">
            <mxPoint x="249" y="2661" as="sourcePoint" />
            <mxPoint x="296" y="2609" as="targetPoint" />
          </mxGeometry>
        </mxCell>
        <mxCell id="e9pyrwrimPvbQd4Hs7WH-24" value="" style="endArrow=classic;html=1;rounded=0;fontSize=12;startSize=8;endSize=8;curved=1;entryX=0;entryY=0.5;entryDx=0;entryDy=0;fillColor=#dae8fc;gradientColor=#7ea6e0;strokeColor=#6c8ebf;strokeWidth=4;" parent="1" edge="1">
          <mxGeometry width="50" height="50" relative="1" as="geometry">
            <mxPoint x="249" y="2919.14" as="sourcePoint" />
            <mxPoint x="282" y="2919.14" as="targetPoint" />
          </mxGeometry>
        </mxCell>
        <mxCell id="e9pyrwrimPvbQd4Hs7WH-25" value="" style="endArrow=classic;html=1;rounded=0;fontSize=12;startSize=8;endSize=8;curved=1;entryX=0;entryY=0.5;entryDx=0;entryDy=0;fillColor=#dae8fc;gradientColor=#7ea6e0;strokeColor=#6c8ebf;strokeWidth=4;" parent="1" edge="1">
          <mxGeometry width="50" height="50" relative="1" as="geometry">
            <mxPoint x="249" y="3166.24" as="sourcePoint" />
            <mxPoint x="282" y="3166.24" as="targetPoint" />
          </mxGeometry>
        </mxCell>
        <mxCell id="e9pyrwrimPvbQd4Hs7WH-26" value="" style="endArrow=classic;html=1;rounded=0;fontSize=12;startSize=8;endSize=8;curved=1;entryX=0;entryY=0.5;entryDx=0;entryDy=0;fillColor=#dae8fc;gradientColor=#7ea6e0;strokeColor=#6c8ebf;strokeWidth=4;" parent="1" edge="1">
          <mxGeometry width="50" height="50" relative="1" as="geometry">
            <mxPoint x="249" y="3415.31" as="sourcePoint" />
            <mxPoint x="282" y="3415.31" as="targetPoint" />
          </mxGeometry>
        </mxCell>
        <mxCell id="e9pyrwrimPvbQd4Hs7WH-31" value="" style="shape=flexArrow;endArrow=classic;startArrow=classic;html=1;rounded=0;fontSize=12;startSize=8;endSize=8;curved=1;fillColor=#ffcd28;gradientColor=#ffa500;strokeColor=#d79b00;strokeWidth=3;" parent="1" edge="1">
          <mxGeometry width="100" height="100" relative="1" as="geometry">
            <mxPoint x="521.31" y="2660.2" as="sourcePoint" />
            <mxPoint x="644.31" y="2659.79" as="targetPoint" />
          </mxGeometry>
        </mxCell>
        <mxCell id="e9pyrwrimPvbQd4Hs7WH-33" value="" style="shape=flexArrow;endArrow=classic;startArrow=classic;html=1;rounded=0;fontSize=12;startSize=8;endSize=8;curved=1;fillColor=#ffcd28;gradientColor=#ffa500;strokeColor=#d79b00;strokeWidth=3;" parent="1" edge="1">
          <mxGeometry width="100" height="100" relative="1" as="geometry">
            <mxPoint x="521.31" y="3415.2" as="sourcePoint" />
            <mxPoint x="644.31" y="3414.79" as="targetPoint" />
          </mxGeometry>
        </mxCell>
        <mxCell id="e9pyrwrimPvbQd4Hs7WH-34" value="" style="shape=flexArrow;endArrow=classic;startArrow=classic;html=1;rounded=0;fontSize=12;startSize=8;endSize=8;curved=1;fillColor=#ffcd28;gradientColor=#ffa500;strokeColor=#d79b00;strokeWidth=3;" parent="1" edge="1">
          <mxGeometry width="100" height="100" relative="1" as="geometry">
            <mxPoint x="521.31" y="2914.48" as="sourcePoint" />
            <mxPoint x="644.31" y="2914.07" as="targetPoint" />
          </mxGeometry>
        </mxCell>
        <mxCell id="e9pyrwrimPvbQd4Hs7WH-35" value="" style="shape=flexArrow;endArrow=classic;startArrow=classic;html=1;rounded=0;fontSize=12;startSize=8;endSize=8;curved=1;fillColor=#ffcd28;gradientColor=#ffa500;strokeColor=#d79b00;strokeWidth=3;" parent="1" edge="1">
          <mxGeometry width="100" height="100" relative="1" as="geometry">
            <mxPoint x="521.31" y="3166.48" as="sourcePoint" />
            <mxPoint x="644.31" y="3166.07" as="targetPoint" />
          </mxGeometry>
        </mxCell>
        <mxCell id="e9pyrwrimPvbQd4Hs7WH-37" value="&lt;h3&gt;&lt;font face=&quot;Times New Roman&quot; style=&quot;font-size: 25px; color: light-dark(rgb(0, 0, 0), rgb(153, 153, 153));&quot;&gt;Processor 1&lt;/font&gt;&lt;/h3&gt;" style="text;html=1;align=center;verticalAlign=middle;resizable=0;points=[];autosize=1;strokeColor=none;fillColor=none;fontSize=16;" parent="1" vertex="1">
          <mxGeometry x="91.13" y="2727" width="140" height="79" as="geometry" />
        </mxCell>
        <mxCell id="e9pyrwrimPvbQd4Hs7WH-39" value="&lt;h3&gt;&lt;font style=&quot;font-size: 25px; color: light-dark(rgb(0, 0, 0), rgb(153, 153, 153));&quot; face=&quot;Times New Roman&quot;&gt;Processor 2&lt;/font&gt;&lt;/h3&gt;" style="text;html=1;align=center;verticalAlign=middle;resizable=0;points=[];autosize=1;strokeColor=none;fillColor=none;fontSize=16;" parent="1" vertex="1">
          <mxGeometry x="91.13" y="2985" width="140" height="79" as="geometry" />
        </mxCell>
        <mxCell id="e9pyrwrimPvbQd4Hs7WH-40" value="&lt;h3&gt;&lt;font style=&quot;font-size: 25px; color: light-dark(rgb(0, 0, 0), rgb(153, 153, 153));&quot; face=&quot;Times New Roman&quot;&gt;Processor 3&lt;/font&gt;&lt;/h3&gt;" style="text;html=1;align=center;verticalAlign=middle;resizable=0;points=[];autosize=1;strokeColor=none;fillColor=none;fontSize=16;" parent="1" vertex="1">
          <mxGeometry x="91.13" y="3236" width="140" height="79" as="geometry" />
        </mxCell>
        <mxCell id="e9pyrwrimPvbQd4Hs7WH-41" value="&lt;h3&gt;&lt;font style=&quot;font-size: 25px; color: light-dark(rgb(0, 0, 0), rgb(153, 153, 153));&quot; face=&quot;Times New Roman&quot;&gt;Processor 4&lt;/font&gt;&lt;/h3&gt;" style="text;html=1;align=center;verticalAlign=middle;resizable=0;points=[];autosize=1;strokeColor=none;fillColor=none;fontSize=16;" parent="1" vertex="1">
          <mxGeometry x="92.76" y="3480" width="140" height="79" as="geometry" />
        </mxCell>
        <mxCell id="e9pyrwrimPvbQd4Hs7WH-42" value="&lt;font style=&quot;font-size: 20px; color: light-dark(rgb(0, 0, 0), rgb(153, 153, 153));&quot; face=&quot;Times New Roman&quot;&gt;&lt;b&gt;On-Chip&lt;/b&gt;&lt;/font&gt;&lt;div&gt;&lt;font style=&quot;font-size: 20px; color: light-dark(rgb(0, 0, 0), rgb(153, 153, 153));&quot; face=&quot;Times New Roman&quot;&gt;&lt;b&gt;L1 Cache&lt;/b&gt;&lt;/font&gt;&lt;/div&gt;" style="text;html=1;align=center;verticalAlign=middle;resizable=0;points=[];autosize=1;strokeColor=none;fillColor=none;fontSize=16;" parent="1" vertex="1">
          <mxGeometry x="351.65" y="2736.5" width="100" height="60" as="geometry" />
        </mxCell>
        <mxCell id="e9pyrwrimPvbQd4Hs7WH-44" value="&lt;font style=&quot;font-size: 20px; color: light-dark(rgb(0, 0, 0), rgb(153, 153, 153));&quot; face=&quot;Times New Roman&quot;&gt;&lt;b&gt;On-Chip&lt;/b&gt;&lt;/font&gt;&lt;div&gt;&lt;font style=&quot;font-size: 20px; color: light-dark(rgb(0, 0, 0), rgb(153, 153, 153));&quot; face=&quot;Times New Roman&quot;&gt;&lt;b&gt;L2 Cache&lt;/b&gt;&lt;/font&gt;&lt;/div&gt;" style="text;html=1;align=center;verticalAlign=middle;resizable=0;points=[];autosize=1;strokeColor=none;fillColor=none;fontSize=16;" parent="1" vertex="1">
          <mxGeometry x="351.48" y="2994.5" width="100" height="60" as="geometry" />
        </mxCell>
        <mxCell id="e9pyrwrimPvbQd4Hs7WH-45" value="&lt;font style=&quot;font-size: 20px; color: light-dark(rgb(0, 0, 0), rgb(153, 153, 153));&quot; face=&quot;Times New Roman&quot;&gt;&lt;b&gt;On-Chip&lt;/b&gt;&lt;/font&gt;&lt;div&gt;&lt;font style=&quot;font-size: 20px; color: light-dark(rgb(0, 0, 0), rgb(153, 153, 153));&quot; face=&quot;Times New Roman&quot;&gt;&lt;b&gt;L3 Cache&lt;/b&gt;&lt;/font&gt;&lt;/div&gt;" style="text;html=1;align=center;verticalAlign=middle;resizable=0;points=[];autosize=1;strokeColor=none;fillColor=none;fontSize=16;" parent="1" vertex="1">
          <mxGeometry x="358" y="3244" width="100" height="60" as="geometry" />
        </mxCell>
        <mxCell id="e9pyrwrimPvbQd4Hs7WH-47" value="&lt;font style=&quot;text-wrap-mode: nowrap; font-size: 20px; color: light-dark(rgb(0, 0, 0), rgb(153, 153, 153));&quot; face=&quot;Times New Roman&quot;&gt;&lt;b&gt;On-Chip&lt;/b&gt;&lt;/font&gt;&lt;div style=&quot;font-size: 16px; text-wrap-mode: nowrap;&quot;&gt;&lt;font style=&quot;font-size: 20px; color: light-dark(rgb(0, 0, 0), rgb(153, 153, 153));&quot; face=&quot;Times New Roman&quot;&gt;&lt;b&gt;L1 Cache&lt;/b&gt;&lt;/font&gt;&lt;/div&gt;" style="text;whiteSpace=wrap;html=1;align=center;" parent="1" vertex="1">
          <mxGeometry x="353.0033740234376" y="3497.999918619792" width="110" height="70" as="geometry" />
        </mxCell>
        <mxCell id="e9pyrwrimPvbQd4Hs7WH-48" value="&lt;div&gt;&lt;font style=&quot;font-size: 20px; color: light-dark(rgb(0, 0, 0), rgb(153, 153, 153));&quot; face=&quot;Times New Roman&quot;&gt;&lt;b&gt;L2 Cache 1&lt;/b&gt;&lt;/font&gt;&lt;/div&gt;" style="text;html=1;align=center;verticalAlign=middle;resizable=0;points=[];autosize=1;strokeColor=none;fillColor=none;fontSize=16;" parent="1" vertex="1">
          <mxGeometry x="690.76" y="2752" width="115" height="36" as="geometry" />
        </mxCell>
        <mxCell id="e9pyrwrimPvbQd4Hs7WH-51" value="&lt;b style=&quot;font-family: &amp;quot;Times New Roman&amp;quot;; font-size: 20px;&quot;&gt;&lt;font style=&quot;color: light-dark(rgb(153, 153, 153), rgb(153, 153, 153));&quot;&gt;L2 Cache 2&lt;/font&gt;&lt;/b&gt;" style="text;html=1;align=center;verticalAlign=middle;resizable=0;points=[];autosize=1;strokeColor=none;fillColor=none;fontSize=16;" parent="1" vertex="1">
          <mxGeometry x="685.63" y="3006.5" width="115" height="36" as="geometry" />
        </mxCell>
        <mxCell id="e9pyrwrimPvbQd4Hs7WH-52" value="&lt;b style=&quot;font-family: &amp;quot;Times New Roman&amp;quot;; font-size: 20px;&quot;&gt;&lt;font style=&quot;color: light-dark(rgb(153, 153, 153), rgb(153, 153, 153));&quot;&gt;L2 Cache 3&lt;/font&gt;&lt;/b&gt;" style="text;html=1;align=center;verticalAlign=middle;resizable=0;points=[];autosize=1;strokeColor=none;fillColor=none;fontSize=16;" parent="1" vertex="1">
          <mxGeometry x="690.76" y="3257.5" width="115" height="36" as="geometry" />
        </mxCell>
        <mxCell id="e9pyrwrimPvbQd4Hs7WH-54" value="&lt;b style=&quot;font-family: &amp;quot;Times New Roman&amp;quot;; font-size: 20px;&quot;&gt;&lt;font style=&quot;color: light-dark(rgb(153, 153, 153), rgb(153, 153, 153));&quot;&gt;L2 Cache 4&lt;/font&gt;&lt;/b&gt;" style="text;html=1;align=center;verticalAlign=middle;resizable=0;points=[];autosize=1;strokeColor=none;fillColor=none;fontSize=16;" parent="1" vertex="1">
          <mxGeometry x="685.63" y="3506.1" width="115" height="36" as="geometry" />
        </mxCell>
        <mxCell id="e9pyrwrimPvbQd4Hs7WH-61" value="&lt;font style=&quot;color: light-dark(rgb(153, 153, 153), rgb(153, 153, 153));&quot; face=&quot;Times New Roman&quot;&gt;&lt;span style=&quot;font-size: 20px;&quot;&gt;&lt;b style=&quot;&quot;&gt;Real Memory&lt;/b&gt;&lt;/span&gt;&lt;/font&gt;" style="text;html=1;align=center;verticalAlign=middle;resizable=0;points=[];autosize=1;strokeColor=none;fillColor=none;fontSize=16;" parent="1" vertex="1">
          <mxGeometry x="1059" y="3141" width="135" height="36" as="geometry" />
        </mxCell>
        <mxCell id="e9pyrwrimPvbQd4Hs7WH-62" value="&lt;font style=&quot;color: light-dark(rgb(153, 153, 153), rgb(153, 153, 153));&quot; face=&quot;Times New Roman&quot;&gt;&lt;span style=&quot;font-size: 20px;&quot;&gt;&lt;b style=&quot;&quot;&gt;I/O Devices&lt;/b&gt;&lt;/span&gt;&lt;/font&gt;" style="text;html=1;align=center;verticalAlign=middle;resizable=0;points=[];autosize=1;strokeColor=none;fillColor=none;fontSize=16;" parent="1" vertex="1">
          <mxGeometry x="1557.8199999999997" y="3141" width="116" height="36" as="geometry" />
        </mxCell>
        <mxCell id="RoWtJXXIrwzOJ1EI4wtJ-2" value="" style="endArrow=classic;html=1;rounded=0;strokeWidth=5;fillColor=#ffcccc;strokeColor=#36393d;" parent="1" edge="1">
          <mxGeometry width="50" height="50" relative="1" as="geometry">
            <mxPoint x="895" y="2646" as="sourcePoint" />
            <mxPoint x="825.81" y="2646.2" as="targetPoint" />
          </mxGeometry>
        </mxCell>
        <mxCell id="RoWtJXXIrwzOJ1EI4wtJ-4" value="" style="endArrow=classic;html=1;rounded=0;strokeWidth=5;fillColor=#ffcccc;strokeColor=#36393d;" parent="1" edge="1">
          <mxGeometry width="50" height="50" relative="1" as="geometry">
            <mxPoint x="895" y="3414.79" as="sourcePoint" />
            <mxPoint x="825.81" y="3414.99" as="targetPoint" />
          </mxGeometry>
        </mxCell>
        <mxCell id="RoWtJXXIrwzOJ1EI4wtJ-5" value="" style="endArrow=classic;html=1;rounded=0;strokeWidth=5;fillColor=#ffcccc;strokeColor=#36393d;" parent="1" edge="1">
          <mxGeometry width="50" height="50" relative="1" as="geometry">
            <mxPoint x="895" y="3165.79" as="sourcePoint" />
            <mxPoint x="825.81" y="3165.99" as="targetPoint" />
          </mxGeometry>
        </mxCell>
        <mxCell id="RoWtJXXIrwzOJ1EI4wtJ-6" value="" style="endArrow=classic;html=1;rounded=0;strokeWidth=5;fillColor=#ffcccc;strokeColor=#36393d;" parent="1" edge="1">
          <mxGeometry width="50" height="50" relative="1" as="geometry">
            <mxPoint x="897.19" y="2913.79" as="sourcePoint" />
            <mxPoint x="828" y="2913.99" as="targetPoint" />
          </mxGeometry>
        </mxCell>
        <mxCell id="RoWtJXXIrwzOJ1EI4wtJ-7" value="" style="endArrow=classic;html=1;rounded=0;strokeWidth=5;fillColor=#ffcccc;strokeColor=#36393d;" parent="1" edge="1">
          <mxGeometry width="50" height="50" relative="1" as="geometry">
            <mxPoint x="899" y="3013.72" as="sourcePoint" />
            <mxPoint x="965.0000000000001" y="3013.72" as="targetPoint" />
          </mxGeometry>
        </mxCell>
        <mxCell id="RoWtJXXIrwzOJ1EI4wtJ-8" value="" style="endArrow=none;html=1;rounded=0;strokeWidth=10;fillColor=#ffcccc;strokeColor=#36393d;" parent="1" edge="1">
          <mxGeometry width="50" height="50" relative="1" as="geometry">
            <mxPoint x="898" y="3417" as="sourcePoint" />
            <mxPoint x="898" y="2642" as="targetPoint" />
          </mxGeometry>
        </mxCell>
        <mxCell id="RoWtJXXIrwzOJ1EI4wtJ-10" value="" style="shape=flexArrow;endArrow=classic;startArrow=classic;html=1;rounded=0;fontSize=12;startSize=8;endSize=8;curved=1;fillColor=#ffcd28;gradientColor=#ffa500;strokeColor=#d79b00;strokeWidth=3;" parent="1" edge="1">
          <mxGeometry width="100" height="100" relative="1" as="geometry">
            <mxPoint x="1327" y="3024" as="sourcePoint" />
            <mxPoint x="1450" y="3023.59" as="targetPoint" />
          </mxGeometry>
        </mxCell>
        <mxCell id="ENSlIWXHjY5siZkNxGBi-1" value="" style="shape=image;verticalLabelPosition=bottom;labelBackgroundColor=default;verticalAlign=top;aspect=fixed;imageAspect=0;image=https://cdn2.iconfinder.com/data/icons/cloud-computing-143/66/9-512.png;" vertex="1" parent="1">
          <mxGeometry x="109.42999999999998" y="1758.1699999999998" width="138.67" height="138.67" as="geometry" />
        </mxCell>
        <mxCell id="ENSlIWXHjY5siZkNxGBi-2" value="" style="shape=image;verticalLabelPosition=bottom;labelBackgroundColor=default;verticalAlign=top;aspect=fixed;imageAspect=0;image=https://cdn2.iconfinder.com/data/icons/cloud-computing-143/66/9-512.png;" vertex="1" parent="1">
          <mxGeometry x="1015.43" y="1758.1699999999998" width="138.67" height="138.67" as="geometry" />
        </mxCell>
        <mxCell id="ENSlIWXHjY5siZkNxGBi-3" value="" style="shape=image;verticalLabelPosition=bottom;labelBackgroundColor=default;verticalAlign=top;aspect=fixed;imageAspect=0;image=https://cdn2.iconfinder.com/data/icons/cloud-computing-143/66/9-512.png;" vertex="1" parent="1">
          <mxGeometry x="710.42" y="1758.1699999999998" width="138.67" height="138.67" as="geometry" />
        </mxCell>
        <mxCell id="ENSlIWXHjY5siZkNxGBi-4" value="" style="shape=image;verticalLabelPosition=bottom;labelBackgroundColor=default;verticalAlign=top;aspect=fixed;imageAspect=0;image=https://cdn2.iconfinder.com/data/icons/cloud-computing-143/66/9-512.png;" vertex="1" parent="1">
          <mxGeometry x="406.43999999999994" y="1758.1699999999998" width="138.67" height="138.67" as="geometry" />
        </mxCell>
      </root>
    </mxGraphModel>
  </diagram>
</mxfile>
